<svg xmlns="http://www.w3.org/2000/svg" xmlns:xlink="http://www.w3.org/1999/xlink" width="500" zoomAndPan="magnify" viewBox="0 0 375 374.999991" height="500" preserveAspectRatio="xMidYMid meet" version="1.0"><metadata/><defs><g/><clipPath id="a20941a3ed"><path d="M 94.46875 162.1875 L 144.71875 162.1875 L 144.71875 202 L 94.46875 202 Z M 94.46875 162.1875 " clip-rule="nonzero"/></clipPath><clipPath id="e5f2cf0c48"><path d="M 105 173 L 134 173 L 134 212.4375 L 105 212.4375 Z M 105 173 " clip-rule="nonzero"/></clipPath></defs><g clip-path="url(#a20941a3ed)"><path fill="#ffffff" d="M 119.773438 162.1875 C 105.824219 162.1875 94.46875 173.546875 94.46875 187.496094 L 94.46875 198.605469 C 94.46875 200.308594 95.851562 201.691406 97.554688 201.691406 C 99.257812 201.691406 100.640625 200.308594 100.640625 198.605469 L 100.640625 187.496094 C 100.640625 176.941406 109.21875 168.359375 119.773438 168.359375 C 130.328125 168.359375 138.910156 176.941406 138.910156 187.496094 L 138.910156 198.605469 C 138.910156 200.308594 140.289062 201.691406 141.996094 201.691406 C 143.699219 201.691406 145.082031 200.308594 145.082031 198.605469 L 145.082031 187.496094 C 145.082031 173.546875 133.722656 162.1875 119.773438 162.1875 Z M 119.773438 162.1875 " fill-opacity="1" fill-rule="nonzero"/></g><g clip-path="url(#e5f2cf0c48)"><path fill="#ffffff" d="M 119.773438 173.296875 C 111.949219 173.296875 105.578125 179.667969 105.578125 187.421875 C 105.355469 196.628906 111.464844 205.023438 123.75 212.371094 C 124.242188 212.667969 124.785156 212.800781 125.328125 212.800781 C 126.378906 212.800781 127.402344 212.269531 127.984375 211.296875 C 128.859375 209.828125 128.378906 207.9375 126.921875 207.0625 C 116.6875 200.949219 111.589844 194.382812 111.761719 187.496094 C 111.761719 183.074219 115.367188 179.472656 119.785156 179.472656 C 124.207031 179.472656 127.808594 183.074219 127.808594 187.496094 C 127.808594 188.851562 126.699219 189.964844 125.339844 189.964844 C 123.984375 189.964844 122.871094 188.851562 122.871094 187.496094 C 122.871094 185.792969 121.488281 184.410156 119.785156 184.410156 C 118.082031 184.410156 116.699219 185.792969 116.699219 187.496094 C 116.699219 192.261719 120.578125 196.136719 125.339844 196.136719 C 130.105469 196.136719 133.984375 192.261719 133.984375 187.496094 C 133.984375 179.667969 127.613281 173.296875 119.785156 173.296875 Z M 119.773438 173.296875 " fill-opacity="1" fill-rule="nonzero"/></g><g fill="#ffffff" fill-opacity="1"><g transform="translate(157.437503, 191.999987)"><g><path d="M 14.140625 -14.71875 L 8.625 -4.578125 L 8.625 0 L 5.71875 0 L 5.71875 -4.578125 L 0.296875 -14.71875 L 3.875 -14.71875 L 7.265625 -7.921875 L 10.5625 -14.71875 Z M 14.140625 -14.71875 "/></g></g></g><g fill="#ffffff" fill-opacity="1"><g transform="translate(171.871809, 191.999987)"><g><path d="M 4.5 -5.4375 C 4.5 -4.96875 4.640625 -4.519531 4.921875 -4.09375 C 5.203125 -3.664062 5.570312 -3.316406 6.03125 -3.046875 C 6.5 -2.785156 7.003906 -2.65625 7.546875 -2.65625 C 8.117188 -2.65625 8.644531 -2.785156 9.125 -3.046875 C 9.601562 -3.316406 9.976562 -3.664062 10.25 -4.09375 C 10.519531 -4.519531 10.65625 -4.96875 10.65625 -5.4375 L 10.65625 -14.71875 L 13.515625 -14.71875 L 13.515625 -5.375 C 13.515625 -4.320312 13.25 -3.375 12.71875 -2.53125 C 12.1875 -1.6875 11.460938 -1.023438 10.546875 -0.546875 C 9.640625 -0.078125 8.640625 0.15625 7.546875 0.15625 C 6.453125 0.15625 5.453125 -0.078125 4.546875 -0.546875 C 3.640625 -1.023438 2.921875 -1.6875 2.390625 -2.53125 C 1.859375 -3.375 1.59375 -4.320312 1.59375 -5.375 L 1.59375 -14.71875 L 4.5 -14.71875 Z M 4.5 -5.4375 "/></g></g></g><g fill="#ffffff" fill-opacity="1"><g transform="translate(186.985849, 191.999987)"><g><path d="M 15.15625 -14.71875 L 15.15625 0.59375 L 15.078125 0.59375 L 4.78125 -8.703125 L 4.84375 0 L 1.90625 0 L 1.90625 -15.296875 L 2.015625 -15.296875 L 12.296875 -5.859375 L 12.234375 -14.71875 Z M 15.15625 -14.71875 "/></g></g></g><g fill="#ffffff" fill-opacity="1"><g transform="translate(204.039123, 191.999987)"><g><path d="M 9.484375 -7.765625 C 10.253906 -7.398438 10.851562 -6.925781 11.28125 -6.34375 C 11.71875 -5.769531 11.9375 -5.101562 11.9375 -4.34375 C 11.9375 -2.84375 11.445312 -1.742188 10.46875 -1.046875 C 9.488281 -0.347656 8.265625 0 6.796875 0 L 1.90625 0 L 1.90625 -14.71875 L 6.21875 -14.71875 C 7.78125 -14.71875 9.003906 -14.398438 9.890625 -13.765625 C 10.785156 -13.128906 11.234375 -12.210938 11.234375 -11.015625 C 11.234375 -10.285156 11.078125 -9.644531 10.765625 -9.09375 C 10.460938 -8.539062 10.035156 -8.097656 9.484375 -7.765625 Z M 4.796875 -8.703125 L 6.5625 -8.703125 C 7.09375 -8.703125 7.503906 -8.863281 7.796875 -9.1875 C 8.085938 -9.519531 8.234375 -9.925781 8.234375 -10.40625 C 8.234375 -10.894531 8.066406 -11.269531 7.734375 -11.53125 C 7.398438 -11.789062 6.941406 -11.921875 6.359375 -11.921875 L 4.796875 -11.921875 Z M 6.65625 -2.703125 C 7.34375 -2.703125 7.894531 -2.835938 8.3125 -3.109375 C 8.726562 -3.378906 8.9375 -3.789062 8.9375 -4.34375 C 8.9375 -5.382812 8.109375 -5.90625 6.453125 -5.90625 L 4.796875 -5.90625 L 4.796875 -2.703125 Z M 6.65625 -2.703125 "/></g></g></g><g fill="#ffffff" fill-opacity="1"><g transform="translate(216.974025, 191.999987)"><g><path d="M 4.796875 -14.71875 L 4.796875 -2.796875 L 11.71875 -2.796875 L 11.71875 0 L 1.90625 0 L 1.90625 -14.71875 Z M 4.796875 -14.71875 "/></g></g></g><g fill="#ffffff" fill-opacity="1"><g transform="translate(229.788969, 191.999987)"><g><path d="M 1 -7.34375 C 1 -8.675781 1.332031 -9.921875 2 -11.078125 C 2.675781 -12.234375 3.59375 -13.15625 4.75 -13.84375 C 5.90625 -14.53125 7.15625 -14.875 8.5 -14.875 C 9.84375 -14.875 11.09375 -14.53125 12.25 -13.84375 C 13.40625 -13.15625 14.328125 -12.234375 15.015625 -11.078125 C 15.703125 -9.921875 16.046875 -8.675781 16.046875 -7.34375 C 16.046875 -5.976562 15.703125 -4.722656 15.015625 -3.578125 C 14.328125 -2.429688 13.40625 -1.519531 12.25 -0.84375 C 11.09375 -0.175781 9.84375 0.15625 8.5 0.15625 C 7.132812 0.15625 5.878906 -0.175781 4.734375 -0.84375 C 3.585938 -1.519531 2.675781 -2.429688 2 -3.578125 C 1.332031 -4.722656 1 -5.976562 1 -7.34375 Z M 4 -7.34375 C 4 -6.488281 4.203125 -5.703125 4.609375 -4.984375 C 5.015625 -4.265625 5.566406 -3.691406 6.265625 -3.265625 C 6.960938 -2.847656 7.738281 -2.640625 8.59375 -2.640625 C 9.425781 -2.640625 10.179688 -2.847656 10.859375 -3.265625 C 11.535156 -3.691406 12.066406 -4.257812 12.453125 -4.96875 C 12.847656 -5.6875 13.046875 -6.476562 13.046875 -7.34375 C 13.046875 -8.21875 12.84375 -9.015625 12.4375 -9.734375 C 12.039062 -10.453125 11.5 -11.019531 10.8125 -11.4375 C 10.125 -11.863281 9.359375 -12.078125 8.515625 -12.078125 C 7.679688 -12.078125 6.921875 -11.863281 6.234375 -11.4375 C 5.546875 -11.019531 5 -10.453125 4.59375 -9.734375 C 4.195312 -9.015625 4 -8.21875 4 -7.34375 Z M 4 -7.34375 "/></g></g></g><g fill="#ffffff" fill-opacity="1"><g transform="translate(246.822251, 191.999987)"><g><path d="M 1 -7.34375 C 1 -8.675781 1.332031 -9.921875 2 -11.078125 C 2.675781 -12.234375 3.59375 -13.15625 4.75 -13.84375 C 5.90625 -14.53125 7.15625 -14.875 8.5 -14.875 C 9.84375 -14.875 11.09375 -14.53125 12.25 -13.84375 C 13.40625 -13.15625 14.328125 -12.234375 15.015625 -11.078125 C 15.703125 -9.921875 16.046875 -8.675781 16.046875 -7.34375 C 16.046875 -5.976562 15.703125 -4.722656 15.015625 -3.578125 C 14.328125 -2.429688 13.40625 -1.519531 12.25 -0.84375 C 11.09375 -0.175781 9.84375 0.15625 8.5 0.15625 C 7.132812 0.15625 5.878906 -0.175781 4.734375 -0.84375 C 3.585938 -1.519531 2.675781 -2.429688 2 -3.578125 C 1.332031 -4.722656 1 -5.976562 1 -7.34375 Z M 4 -7.34375 C 4 -6.488281 4.203125 -5.703125 4.609375 -4.984375 C 5.015625 -4.265625 5.566406 -3.691406 6.265625 -3.265625 C 6.960938 -2.847656 7.738281 -2.640625 8.59375 -2.640625 C 9.425781 -2.640625 10.179688 -2.847656 10.859375 -3.265625 C 11.535156 -3.691406 12.066406 -4.257812 12.453125 -4.96875 C 12.847656 -5.6875 13.046875 -6.476562 13.046875 -7.34375 C 13.046875 -8.21875 12.84375 -9.015625 12.4375 -9.734375 C 12.039062 -10.453125 11.5 -11.019531 10.8125 -11.4375 C 10.125 -11.863281 9.359375 -12.078125 8.515625 -12.078125 C 7.679688 -12.078125 6.921875 -11.863281 6.234375 -11.4375 C 5.546875 -11.019531 5 -10.453125 4.59375 -9.734375 C 4.195312 -9.015625 4 -8.21875 4 -7.34375 Z M 4 -7.34375 "/></g></g></g><g fill="#ffffff" fill-opacity="1"><g transform="translate(263.855533, 191.999987)"><g><path d="M 17.0625 -15.3125 L 17.0625 0 L 14.15625 0 L 14.15625 -7.015625 L 9.359375 -0.203125 L 9.3125 -0.203125 L 4.703125 -6.578125 L 4.703125 0 L 1.90625 0 L 1.90625 -15.3125 L 1.921875 -15.3125 L 9.375 -4.734375 L 17.015625 -15.3125 Z M 17.0625 -15.3125 "/></g></g></g></svg>