<svg xmlns="http://www.w3.org/2000/svg" width="115" height="36" fill="none"><defs><linearGradient id="b" x1=".5" x2=".5" y1="0" y2="1"><stop offset="0%" stop-color="#9BA8C7"/><stop offset="100%" stop-color="#9BA8C7" stop-opacity="0"/></linearGradient><clipPath id="a"><rect width="35.088" height="35.64" x="20.051" rx="6.998"/></clipPath></defs><path fill="#FFF" d="M0 24.811h6.901q1.016 0 1.897-.502.881-.503 1.404-1.375t.523-1.906V7.638h4.81v13.39q0 1.891-.956 3.488t-2.57 2.542-3.525.946H0zm22.944 3.193h-4.78V7.638h4.78zm27.903-15.726q0-1.241.627-2.305t1.703-1.685 2.33-.62h10.366q1.285 0 2.36.62 1.076.62 1.703 1.685.628 1.064.628 2.305v11.085q0 1.241-.628 2.32-.627 1.08-1.703 1.7-1.075.62-2.36.62H55.507q-1.255 0-2.33-.635-1.076-.636-1.703-1.7t-.627-2.305zm12.517 12.533q.986 0 1.688-.694.702-.695.702-1.67v-9.223q0-1.005-.702-1.7-.702-.694-1.688-.694h-5.318q-1.015 0-1.718.695-.702.694-.702 1.7v9.222q0 .975.702 1.67.703.694 1.718.694zm39.679 3.193-6.572-15.43-5.258 12.267h5.885l1.494 3.163H85.09l8.723-20.337H99.1l8.724 20.337zm11.173 0h-4.78V7.638h4.78z"/><ellipse cx="76.309" cy="25.247" fill="#FFF" rx="2.462" ry="2.475"/><g clip-path="url(#a)"><path fill="#9BA8C7" d="m32.489 12.6-2.57 15.663h-3.427L29.92 7.38h1.713z"/><path fill="url(#b)" fill-rule="evenodd" d="M36.773 28.263h.823L41.022 7.38H40.2zm1.234 0h.822L42.256 7.38h-.822zm2.056 0h-.823L42.667 7.38h.822z"/><path fill="#FFF" d="M38.486 28.263h-3.427L31.633 7.38h3.426zm10.416 0h-3.427L42.05 7.38h3.426z"/></g></svg>