<svg xmlns="http://www.w3.org/2000/svg" width="80" height="80" fill="none"><linearGradient id="a" x1=".5" x2=".5" y1="0" y2="1"><stop offset="0" stop-color="#fff"/><stop offset="1" stop-color="#bed1ff"/></linearGradient><rect width="80" height="80" fill="#165dff" rx="21.333"/><path fill="url(#a)" d="M31.755 21.832 43.49 29.01c.925.565 2.11.231 2.644-.75.534-.98.216-2.237-.708-2.802l-11.73-7.182c-.925-.565-2.11-.231-2.645.75-.539.985-.22 2.237.704 2.807M21.112 41.366l11.736 7.178c.924.564 2.11.23 2.644-.75s.216-2.233-.708-2.803l-11.736-7.177c-.924-.565-2.11-.231-2.644.75-.54.98-.221 2.238.708 2.802m40.434 5.786-21.439-11.93 2.418-4.441-11.736-7.178-6.776 12.435 11.736 7.177 3.388-6.217-.965 1.781 20.473 13.702c1.387.847 3.168.344 3.969-1.124.796-1.474.323-3.352-1.068-4.205M40.297 57.507c0-1.134-.867-2.053-1.935-2.053H20.938c-1.068 0-1.936.919-1.936 2.053v2.049L17 59.515l.062 2.094h25.166l.087-1.966-1.905-.087c.005 0-.113-.914-.113-2.049"/></svg>