<svg xmlns="http://www.w3.org/2000/svg" width="80" height="80" fill="none"><linearGradient id="a" x1=".5" x2=".5" y1="0" y2="1"><stop offset="0" stop-color="#fff"/><stop offset="1" stop-color="#bed1ff"/></linearGradient><rect width="80" height="80" fill="#165dff" rx="21.333"/><path fill="url(#a)" d="M60.453 43.226c-.219 0-.41.028-.6.055L51.343 29.7a5.2 5.2 0 0 0 1.31-3.464c0-2.89-2.318-5.236-5.209-5.236s-5.209 2.345-5.209 5.236c0 1.691.791 3.19 2.018 4.145l-9.49 18.027c-.437-.11-.9-.191-1.337-.191a5.4 5.4 0 0 0-2.4.573l-7.88-9.409a3.96 3.96 0 0 0 .654-2.182c0-2.154-1.746-3.927-3.9-3.927A3.905 3.905 0 0 0 16 37.2a3.93 3.93 0 0 0 3.927 3.927c.382 0 .791-.054 1.146-.163l8.017 9.572a5.3 5.3 0 0 0-.872 2.89c0 2.892 2.318 5.237 5.208 5.237s5.21-2.345 5.21-5.236a5.23 5.23 0 0 0-1.582-3.736l9.654-18.3c.272.028.49.055.763.055.6 0 1.2-.11 1.746-.3l8.372 13.363a3.9 3.9 0 0 0-1.009 2.618c0 2.155 1.745 3.927 3.9 3.927s3.9-1.745 3.9-3.927c.027-2.127-1.691-3.872-3.846-3.9z"/></svg>