<svg xmlns="http://www.w3.org/2000/svg" width="80" height="80" fill="none"><defs><linearGradient id="a" x1=".5" x2=".5" y1="0" y2="1"><stop offset="0%" stop-color="#FFF"/><stop offset="100%" stop-color="#BED1FF"/></linearGradient></defs><rect width="80" height="80" fill="#165DFF" rx="21.333"/><path fill="url(#a)" fill-rule="evenodd" d="M58.834 40c0-10.955-8.88-19.835-19.835-19.835S19.164 29.045 19.164 40 28.044 59.835 39 59.835c5.111 0 9.771-1.933 13.288-5.108l8.81 9.175q.351.35.702.351.35 0 .701-.35.35-.351.35-.702 0-.35-.35-.701l-8.809-9.174A19.76 19.76 0 0 0 58.834 40m-35.703 0c0-8.764 7.104-15.868 15.868-15.868S54.867 31.236 54.867 40 47.763 55.868 39 55.868 23.131 48.764 23.131 40m25.756.754c.44-5.756-4.112-10.67-9.886-10.672-.77 0-1.52.09-2.237.254 4.298 1.308 5.651 6.726 2.474 9.902-3.178 3.176-8.595 1.82-9.9-2.48-1.305 5.625 2.451 11.17 8.158 12.045 5.707.874 10.952-3.292 11.391-9.049" style="mix-blend-mode:passthrough"/></svg>