<svg xmlns="http://www.w3.org/2000/svg" width="70" height="70" fill="none"><rect width="70" height="70" fill="#165DFF" rx="16"/><path fill="#FFF" d="M34.064 16.19c9.64-.002 17.642 7.446 18.33 17.062h.045l.003 2.031a13.4 13.4 0 0 0-2.688-2.034l.008.003a15.7 15.7 0 0 0-3.607-8.784l-.184.158c-1.38 1.144-3.375 2.037-5.722 2.606.257 1.392.443 2.885.546 4.445-.903.157-1.77.404-2.596.73l.042.845a38 38 0 0 0-.578-5.544c-1.155.15-2.362.228-3.596.228-1.36.002-2.72-.095-4.066-.291l-.092.53a39 39 0 0 0-.499 5.077l7.04-.003a13.4 13.4 0 0 0-3.262 2.625h-3.775c.07 2.16.31 4.174.656 5.959a13.3 13.3 0 0 0-.344 3.024c0 3.003.987 5.772 2.657 8.006a18.375 18.375 0 0 1-16.646-16.992h-.047v-2.62h.047c.69-9.614 8.69-17.062 18.328-17.062M28.18 45.16l-.478.142c-1.391.441-2.543 1.008-3.352 1.656a15.6 15.6 0 0 0 5.946 2.901c-.824-1.194-1.546-2.798-2.116-4.699m-1.394-9.284H18.37a15.7 15.7 0 0 0 4.043 9.287c1.239-1.084 3.019-1.956 5.13-2.552-.42-2.047-.686-4.323-.757-6.735M21.973 24.47l-.15.181a15.7 15.7 0 0 0-3.454 8.6h8.416c.063-2.18.289-4.25.638-6.138-2.255-.596-4.15-1.501-5.45-2.643m11.855-4.938c-1.021 0-2.318 2.14-3.244 5.54a25.5 25.5 0 0 0 6.504.062c-.932-3.439-2.236-5.602-3.26-5.602m3.439-.393.123.178c.914 1.336 1.693 3.168 2.284 5.35 1.98-.48 3.607-1.205 4.636-2.066a15.7 15.7 0 0 0-7.043-3.462m-6.97.128-.236.06a15.7 15.7 0 0 0-6.24 3.271c.945.798 2.405 1.478 4.187 1.956.596-2.16 1.379-3.972 2.29-5.287"/><path fill="#FFF" d="M50.058 39.99c.725 0 1.313.587 1.313 1.312v10.41c0 .726-.588 1.313-1.313 1.313H35.374a1.313 1.313 0 0 1-1.313-1.312v-10.41c0-.726.588-1.313 1.313-1.313zm-1.315 2.625H36.689v7.783h12.054z"/><path fill="#FFF" d="M42.997 33.212a5.97 5.97 0 0 1 5.959 5.563l.013.41v2.664h-2.625v-2.665a3.344 3.344 0 0 0-3.003-3.328l-.342-.019h-.564a3.346 3.346 0 0 0-3.328 3.003l-.019.342v2.667h-2.625v-2.665a5.97 5.97 0 0 1 5.563-5.959l.409-.013h.564z"/></svg>