<svg xmlns="http://www.w3.org/2000/svg" width="70" height="70" fill="none"><defs><clipPath id="a"><rect width="43" height="43" x="15.189" y="12.689" rx="0"/></clipPath></defs><rect width="70" height="70" fill="#165DFF" rx="16"/><g clip-path="url(#a)"><path fill="#FFF" d="M54.158 47.627h-1.344V28.814c0-2.956-2.419-5.375-5.375-5.375h-8.062v-2.687c0-2.957-2.42-5.375-5.375-5.375h-10.75c-2.957 0-5.375 2.418-5.375 5.375v26.875h-1.344a1.33 1.33 0 0 0-1.344 1.343 1.33 1.33 0 0 0 1.344 1.344h37.625a1.33 1.33 0 0 0 1.344-1.344 1.33 1.33 0 0 0-1.344-1.343M36.689 23.439v24.188H20.564V20.752a2.695 2.695 0 0 1 2.688-2.688h10.75a2.695 2.695 0 0 1 2.687 2.688zm13.438 24.188h-10.75v-21.5h8.062a2.695 2.695 0 0 1 2.688 2.687zm-17.47-24.188h-8.062a1.33 1.33 0 0 0-1.343 1.344 1.33 1.33 0 0 0 1.343 1.344h8.063a1.33 1.33 0 0 0 1.344-1.344 1.33 1.33 0 0 0-1.344-1.344m0 8.063h-8.062a1.33 1.33 0 0 0-1.343 1.343 1.33 1.33 0 0 0 1.343 1.344h8.063a1.33 1.33 0 0 0 1.344-1.344 1.33 1.33 0 0 0-1.344-1.343m0 8.062h-8.062a1.33 1.33 0 0 0-1.343 1.344 1.33 1.33 0 0 0 1.343 1.344h8.063a1.33 1.33 0 0 0 1.344-1.344 1.33 1.33 0 0 0-1.344-1.344m13.438-8.062h-2.687a1.33 1.33 0 0 0-1.344 1.343 1.33 1.33 0 0 0 1.344 1.344h2.687a1.33 1.33 0 0 0 1.344-1.344 1.33 1.33 0 0 0-1.344-1.343m0 8.062h-2.687a1.33 1.33 0 0 0-1.344 1.344 1.33 1.33 0 0 0 1.344 1.344h2.687a1.33 1.33 0 0 0 1.344-1.344 1.33 1.33 0 0 0-1.344-1.344"/></g></svg>