<svg xmlns="http://www.w3.org/2000/svg" width="70" height="70" fill="none"><defs><clipPath id="a"><rect width="39" height="39" x="15.689" y="15.189" rx="0"/></clipPath></defs><rect width="70" height="70" fill="#165DFF" rx="16"/><g fill="#FFF" clip-path="url(#a)"><path d="M46.89 22.502c1.462 0 2.437.975 2.437 2.437v24.375c0 1.463-.975 2.438-2.438 2.438H24.952c-1.463 0-2.438-.975-2.438-2.438V24.94c0-1.462.975-2.437 2.438-2.437zm0-2.438H24.951a4.89 4.89 0 0 0-4.875 4.875v24.375a4.89 4.89 0 0 0 4.875 4.875h21.937a4.89 4.89 0 0 0 4.875-4.875V24.94a4.89 4.89 0 0 0-4.875-4.875m-18.28-4.875c.673 0 1.219.545 1.219 1.218v3.656h-2.438v-3.656a1.22 1.22 0 0 1 1.22-1.219m14.624.001c.673 0 1.219.545 1.219 1.218v3.656h-2.438v-3.656a1.22 1.22 0 0 1 1.22-1.219"/><path d="M27.39 42.002h2.437v2.437h-2.438zm9.75-7.312h2.437v2.437h-2.438zm4.874 7.312h2.438v2.437h-2.438zM27.39 34.69h2.437v2.437h-2.438zm4.874 0h2.438v2.437h-2.438zm0-7.313h2.438v2.437h-2.438zm4.876 0h2.437v2.437h-2.438zm4.874 7.313h2.438v2.437h-2.438z"/></g></svg>